<svg width="140" height="140" viewBox="0 0 140 140" fill="none" xmlns="http://www.w3.org/2000/svg">
<path d="M0 70C0 31.3401 31.3401 0 70 0C108.66 0 140 31.3401 140 70C140 108.66 108.66 140 70 140C31.3401 140 0 108.66 0 70Z" fill="#B3FF00" fill-opacity="0.13"/>
<g clip-path="url(#clip0_5_805)">
<path d="M70.0087 40C74.5404 40.0026 79.0127 41.0313 83.0899 43.0088C87.1671 44.9862 90.7434 47.8612 93.5504 51.4179C96.3573 54.9746 98.3221 59.1206 99.2971 63.5449C100.272 67.9692 100.232 72.5568 99.1804 76.9634C98.1285 81.3701 96.0919 85.4813 93.2235 88.9887C90.355 92.496 86.7293 95.3083 82.6182 97.2146C78.5072 99.1209 74.0177 100.072 69.4866 99.9954C64.9556 99.9192 60.5006 98.8181 56.456 96.7747L56.0021 96.5309L42.3294 99.9434C42.0663 100.01 41.7919 100.018 41.5253 99.9677C41.2586 99.9175 41.006 99.8101 40.7849 99.6529C40.5638 99.4957 40.3795 99.2924 40.2446 99.057C40.1098 98.8217 40.0276 98.5599 40.0038 98.2897V97.9822L40.0563 97.6709L43.4698 84.006L43.2334 83.556C41.5211 80.1762 40.4647 76.5027 40.12 72.7298L40.0263 71.2973L40 69.9998C40.0025 67.9423 40.2026 65.9436 40.6002 64.0036V63.9999C40.6497 63.7488 40.7495 63.5104 40.8935 63.299C41.0376 63.0875 41.223 62.9073 41.4385 62.7693C41.654 62.6313 41.8952 62.5383 42.1475 62.4958C42.3999 62.4534 42.6583 62.4624 42.9071 62.5224C44.0587 62.8224 44.4563 63.9999 44.2312 65.0386L44.1862 65.2224C43.0806 71.2579 44.1125 77.4898 47.1046 82.8473C47.2786 83.1579 47.3606 83.5117 47.3409 83.8672L47.2884 84.2197L44.4525 95.5484L55.7958 92.7209C56.0264 92.6639 56.2657 92.6512 56.501 92.6834L56.8424 92.7622L57.1687 92.9084C61.604 95.3923 66.6651 96.5357 71.7378 96.1997C76.8105 95.8637 81.6765 94.0628 85.7451 91.0156C89.8138 87.9684 92.9101 83.806 94.6582 79.0336C96.4064 74.2612 96.7311 69.0841 95.593 64.1308C94.4549 59.1775 91.9029 54.661 88.2469 51.1296C84.5909 47.5982 79.988 45.2037 74.9971 44.2368C70.0061 43.27 64.8417 43.7723 60.1308 45.6829C55.42 47.5935 51.3652 50.8301 48.4587 54.9999H56.8799C57.3773 54.9999 57.8544 55.1975 58.2061 55.5491C58.5578 55.9007 58.7554 56.3776 58.7554 56.8749C58.7554 57.3722 58.5578 57.8491 58.2061 58.2007C57.8544 58.5524 57.3773 58.7499 56.8799 58.7499H45.6266C45.1292 58.7499 44.6522 58.5524 44.3004 58.2007C43.9487 57.8491 43.7511 57.3722 43.7511 56.8749V45.625C43.7511 45.1277 43.9487 44.6508 44.3004 44.2992C44.6522 43.9475 45.1292 43.75 45.6266 43.75C46.1241 43.75 46.6011 43.9475 46.9528 44.2992C47.3046 44.6508 47.5022 45.1277 47.5022 45.625V50.155C50.3153 46.9594 53.7781 44.4005 57.6592 42.6494C61.5403 40.8982 65.7505 39.995 70.0087 40ZM48.7813 62.4999C47.9405 64.8854 47.5081 67.3956 47.5022 69.9248L47.5247 70.9711L47.5997 72.1373C47.864 74.9141 48.6424 77.6175 49.8954 80.1098L51.4446 83.0347L49.6065 90.396L56.9849 88.5585L59.9108 90.1147C63.4473 91.8875 67.3889 92.697 71.3382 92.4617C75.2874 92.2264 79.1049 90.9544 82.4058 88.7742C85.7066 86.5939 88.3743 83.5823 90.1399 80.0429C91.9055 76.5035 92.7066 72.5613 92.4626 68.6137C92.2185 64.6662 90.9379 60.8526 88.7497 57.5575C86.5616 54.2624 83.5433 51.6021 79.999 49.8448C76.4547 48.0875 72.5096 47.2952 68.5614 47.5478C64.6132 47.8004 60.8014 49.089 57.5101 51.2837C58.9417 51.4411 60.2584 52.1414 61.189 53.2402C62.1196 54.3391 62.5933 55.7528 62.5126 57.1904C62.4318 58.6279 61.8027 59.9798 60.7548 60.9675C59.707 61.9553 58.3201 62.5037 56.8799 62.4999H48.7813ZM70.0087 60.6249V73.7498H79.3864C79.8838 73.7498 80.3609 73.9473 80.7126 74.299C81.0643 74.6506 81.2619 75.1275 81.2619 75.6248C81.2619 76.1221 81.0643 76.599 80.7126 76.9506C80.3609 77.3022 79.8838 77.4998 79.3864 77.4998H68.1331C67.6357 77.4998 67.1587 77.3022 66.8069 76.9506C66.4552 76.599 66.2576 76.1221 66.2576 75.6248V60.6249C66.2576 60.1276 66.4552 59.6507 66.8069 59.2991C67.1587 58.9474 67.6357 58.7499 68.1331 58.7499C68.6306 58.7499 69.1076 58.9474 69.4593 59.2991C69.8111 59.6507 70.0087 60.1276 70.0087 60.6249Z" fill="#3CFF00"/>
</g>
<defs>
<clipPath id="clip0_5_805">
<rect width="60" height="60" fill="white" transform="translate(40 40)"/>
</clipPath>
</defs>
</svg>
